<svg width="24" height="24" viewBox="0 0 24 24" fill="none" xmlns="http://www.w3.org/2000/svg">
<path d="M21.7324 18.0002L13.7324 4.00022C13.5579 3.69243 13.305 3.43641 12.9993 3.25829C12.6936 3.08017 12.3462 2.98633 11.9924 2.98633C11.6386 2.98633 11.2911 3.08017 10.9854 3.25829C10.6798 3.43641 10.4268 3.69243 10.2524 4.00022L2.25237 18.0002C2.07605 18.3056 1.9836 18.6521 1.98438 19.0047C1.98516 19.3573 2.07915 19.7035 2.25682 20.008C2.43449 20.3126 2.68952 20.5648 2.99607 20.7391C3.30261 20.9133 3.64978 21.0034 4.00237 21.0002H20.0024C20.3533 20.9999 20.6979 20.9072 21.0017 20.7315C21.3054 20.5558 21.5576 20.3033 21.7329 19.9993C21.9082 19.6954 22.0004 19.3506 22.0003 18.9997C22.0002 18.6488 21.9078 18.3041 21.7324 18.0002Z" stroke="#131214" stroke-width="1.5" stroke-linecap="round" stroke-linejoin="round"/>
<path d="M12 9V13" stroke="#131214" stroke-width="1.5" stroke-linecap="round" stroke-linejoin="round"/>
<path d="M12 17H12.01" stroke="#131214" stroke-width="1.5" stroke-linecap="round" stroke-linejoin="round"/>
</svg>
