<svg width="24" height="24" viewBox="0 0 24 24" fill="none" xmlns="http://www.w3.org/2000/svg">
<path d="M12.7817 5.51063C12.6537 5.5399 12.5386 5.55718 12.4393 5.56691C12.4455 5.39642 12.4636 5.18569 12.5058 4.95077C12.6178 4.32618 12.8956 3.55075 13.5532 2.89317C14.2387 2.20762 14.9511 1.85939 15.4872 1.68199C15.6195 1.63819 15.741 1.60484 15.8485 1.57947C15.8406 1.75372 15.8213 1.96245 15.7808 2.19252C15.6624 2.86384 15.3676 3.69473 14.6687 4.39361C13.9457 5.11658 13.2634 5.40045 12.7817 5.51063Z" fill="#070808" stroke="#070808"/>
<path d="M12.1245 7.3396C11.0188 7.33204 10.3396 6.37734 8.4566 6.37734C6.76225 6.37734 5.06373 7.47051 4.34151 8.52828C3.62264 9.58111 3 10.7358 3 13.0792C3 15.4226 4.12832 19.4528 6.90285 22.1811C7.378 22.6483 8.00698 22.9995 8.72454 23.0213C10.0151 23.0604 10.8076 22.0943 12.4377 22.0943C14.0679 22.0943 14.5585 23.0213 16.0302 23.0213C16.6994 23.0213 17.4626 22.7165 18.2038 21.9283C19.1547 20.917 20.3347 18.9909 20.9358 17.1434C20.9358 17.1434 17.9258 15.9809 17.9622 12.6301C17.9924 9.8528 20.3509 8.48675 20.3509 8.48675C20.3509 8.48675 18.9735 6.29053 16.0453 6.29053C14.0226 6.30565 13.1169 7.34639 12.1245 7.3396Z" fill="#070808"/>
</svg>
