<svg width="32" height="32" viewBox="0 0 32 32" fill="none" xmlns="http://www.w3.org/2000/svg">
<path d="M17.8337 25.6036C17.6461 25.9269 17.3769 26.1953 17.053 26.3819C16.7291 26.5685 16.3619 26.6667 15.9881 26.6667C15.6142 26.6667 15.247 26.5685 14.9231 26.3819C14.5992 26.1953 14.33 25.9269 14.1424 25.6036M22.3864 11.7345C22.3864 10.0368 21.7148 8.40864 20.5143 7.20819C19.3139 6.00775 17.6857 5.33334 15.9881 5.33334C14.2904 5.33334 12.6622 6.00775 11.4618 7.20819C10.2613 8.40864 9.58692 10.0368 9.58692 11.7345C9.58692 17.3333 4.60017 18.2851 6.38635 20.6667C8.17253 23.0483 23.7197 23.3333 25.7197 20.6667C27.4597 18.3467 22.3864 17.3333 22.3864 11.7345Z" stroke="#080708" stroke-width="1.5" stroke-linecap="round" stroke-linejoin="round"/>
</svg>
