<svg width="24" height="24" viewBox="0 0 24 24" fill="none" xmlns="http://www.w3.org/2000/svg">
<path d="M8.99978 4C8.99978 3.58579 8.664 3.25 8.24978 3.25C7.83557 3.25 7.49978 3.58579 7.49978 4H8.99978ZM7.49978 6.81583C7.49978 7.23004 7.83557 7.56583 8.24978 7.56583C8.664 7.56583 8.99978 7.23004 8.99978 6.81583H7.49978ZM14.9681 6.81583C14.9681 7.23004 15.3039 7.56583 15.7181 7.56583C16.1323 7.56583 16.4681 7.23004 16.4681 6.81583H14.9681ZM16.4681 4.00003C16.4681 3.58581 16.1323 3.25003 15.7181 3.25003C15.3039 3.25003 14.9681 3.58581 14.9681 4.00003H16.4681ZM4.51563 17.1994L5.26563 17.1994L4.51563 17.1994ZM4.51564 7.86398L5.26564 7.86398V7.86398H4.51564ZM7.49978 4V6.81583H8.99978V4H7.49978ZM15.7181 5.81336H16.6517V4.31336H15.7181V5.81336ZM14.9681 5.06336V6.81583H16.4681V5.06336H14.9681ZM16.4681 5.06336V4.00003H14.9681V5.06336H16.4681ZM3.76563 17.1994C3.76563 19.1603 5.35529 20.75 7.31625 20.75V19.25C6.18372 19.25 5.26563 18.3319 5.26563 17.1994L3.76563 17.1994ZM18.7023 17.1994C18.7023 18.3319 17.7842 19.25 16.6517 19.25V20.75C18.6126 20.75 20.2023 19.1603 20.2023 17.1994H18.7023ZM20.2023 7.86398C20.2023 5.90303 18.6126 4.31336 16.6517 4.31336V5.81336C17.7842 5.81336 18.7023 6.73146 18.7023 7.86398H20.2023ZM5.26564 7.86398C5.26564 6.73146 6.18373 5.81336 7.31626 5.81336V4.31336C5.3553 4.31336 3.76564 5.90303 3.76564 7.86398H5.26564ZM4.51562 10.5831H19.4523V9.08312H4.51562V10.5831ZM18.7023 7.86398V17.1994H20.2023V7.86398H18.7023ZM5.26563 17.1994L5.26564 7.86398L3.76564 7.86398L3.76563 17.1994L5.26563 17.1994ZM7.31626 5.81336H15.7181V4.31336H7.31626V5.81336ZM16.6517 19.25H7.31625V20.75H16.6517V19.25Z" fill="#C1C4C6"/>
</svg>
