<svg width="120" height="120" viewBox="0 0 120 120" fill="none" xmlns="http://www.w3.org/2000/svg">
<path d="M100 56.3429V60.0229C99.9951 68.6486 97.202 77.0416 92.0373 83.9502C86.8726 90.8588 79.6131 95.9128 71.3414 98.3585C63.0697 100.804 54.229 100.51 46.1379 97.5212C38.0467 94.5319 31.1386 89.0073 26.4438 81.7711C21.7491 74.535 19.5192 65.9751 20.0867 57.3681C20.6542 48.7611 23.9888 40.5682 29.5931 34.0112C35.1974 27.4542 42.7711 22.8844 51.1847 20.9835C59.5984 19.0825 68.4011 19.9522 76.28 23.4629M45 51.6667L58.1311 64.7978C60.0838 66.7504 63.2496 66.7504 65.2022 64.7978L95 35" stroke="#23A15D" stroke-width="5" stroke-linecap="round" stroke-linejoin="round"/>
</svg>
