<svg width="32" height="32" viewBox="0 0 32 32" fill="none" xmlns="http://www.w3.org/2000/svg">
<path d="M15.8965 13.362C14.2872 13.362 12.9827 14.6665 12.9827 16.2758C12.9827 16.5983 13.0351 16.9086 13.1319 17.1987M19.4484 11.0516C15.6376 9.76654 11.3102 10.6639 8.2737 13.7003L6.21336 15.7607C5.92888 16.0452 5.92888 16.5064 6.21336 16.7909L8.2737 18.8512C8.86693 19.4444 9.31854 20.0717 10 20.5M21.5 11.9821C21.6688 12.0805 21.8355 12.1839 22 12.2921C22.6104 12.694 23.1893 13.1634 23.7263 13.7003L25.7866 15.7607C26.0711 16.0452 26.0711 16.5064 25.7866 16.7909L23.7263 18.8512C20.707 21.8705 16.3604 22.7534 12.5648 21.5C12.3751 21.4373 12.1867 21.3694 12 21.296M18.5 14.9661C18.5853 15.1353 18.6546 15.3139 18.7058 15.5C18.7739 15.747 18.8102 16.0071 18.8102 16.2758C18.8102 17.885 17.5057 19.1895 15.8965 19.1895C15.5837 19.1895 15.2824 19.1403 15 19.049C14.8374 18.9965 14.6811 18.9301 14.5324 18.8512M21.5 9L8 22.5" stroke="#080708" stroke-width="1.5" stroke-linecap="round" stroke-linejoin="round"/>
</svg>
