<svg width="32" height="32" viewBox="0 0 32 32" fill="none" xmlns="http://www.w3.org/2000/svg">
<path d="M2.95114 16.3878C2.57184 16.0085 2.57184 15.3935 2.95114 15.0142L5.69827 12.2671C11.3878 6.57763 20.6122 6.57763 26.3017 12.2671L29.0489 15.0142C29.4282 15.3935 29.4282 16.0085 29.0489 16.3878L26.3017 19.1349C20.6122 24.8244 11.3878 24.8244 5.69827 19.1349L2.95114 16.3878Z" stroke="#080708" stroke-width="1.5"/>
<path d="M19.747 15.701C19.747 17.8467 18.0076 19.5861 15.862 19.5861C13.7163 19.5861 11.9769 17.8467 11.9769 15.701C11.9769 13.5554 13.7163 11.816 15.862 11.816C18.0076 11.816 19.747 13.5554 19.747 15.701Z" stroke="#080708" stroke-width="1.5"/>
</svg>
