<svg width="24" height="25" viewBox="0 0 24 25" fill="none" xmlns="http://www.w3.org/2000/svg">
<path d="M12 14.5C14.7614 14.5 17 12.2614 17 9.5C17 6.73858 14.7614 4.5 12 4.5C9.23858 4.5 7 6.73858 7 9.5C7 12.2614 9.23858 14.5 12 14.5ZM12 14.5V19.5M12 7.5C13.1046 7.5 14 8.39543 14 9.5M12 19.5V20.5M12 19.5C12 17.8431 13.3431 16.5 15 16.5H16C17.1046 16.5 18 17.3954 18 18.5C18 19.6046 17.1046 20.5 16 20.5H12M12 19.5C12 17.8431 10.6569 16.5 9 16.5H8C6.89543 16.5 6 17.3954 6 18.5C6 19.6046 6.89543 20.5 8 20.5H12" stroke="white" stroke-width="1.5" stroke-linecap="round" stroke-linejoin="round"/>
</svg>
