<svg width="25" height="24" viewBox="0 0 25 24" fill="none" xmlns="http://www.w3.org/2000/svg">
    <path
        d="M8.74926 8.24663H13.7466M8.74926 11.9946H16.2452M14.1901 21.2071C13.3091 22.2643 11.6854 22.2643 10.8044 21.2071C10.0176 20.263 8.61054 20.1449 7.67742 20.9447L6.8239 21.6763C6.10771 22.2902 5.00128 21.7813 5.00128 20.838L5.00128 5.74798C5.00128 3.67803 6.67931 2 8.74926 2L16.2452 2C18.3152 2 19.9932 3.67803 19.9932 5.74798L19.9932 20.838C19.9932 21.7813 18.8868 22.2902 18.1706 21.6763L17.3171 20.9447C16.3839 20.1449 14.9769 20.263 14.1901 21.2071Z"
        stroke="" stroke-width="2" stroke-linecap="round" />
</svg>