<svg width="24" height="24" viewBox="0 0 24 24" fill="none" xmlns="http://www.w3.org/2000/svg">
<path d="M17.5977 17.2956C16.8124 17.2956 16.0763 16.9936 15.5203 16.4376L12.5255 13.4428C12.3197 13.237 11.9461 13.237 11.7402 13.4428L8.73317 16.4499C8.17718 17.0059 7.44108 17.3079 6.65575 17.3079H6.06396L9.86864 21.1126C11.0522 22.2962 12.9842 22.2962 14.1678 21.1126L17.9836 17.2967L17.5977 17.2956Z" fill="white"/>
<path d="M6.64334 6.69124C7.42866 6.69124 8.16476 6.99329 8.72075 7.54928L11.7278 10.5563C11.9448 10.7734 12.295 10.7734 12.5131 10.5563L15.5202 7.56158C16.0762 7.00559 16.8123 6.70355 17.5976 6.70355H17.96L14.1442 2.88768C12.9606 1.70411 11.0286 1.70411 9.84504 2.88768L6.03925 6.69124H6.64334Z" fill="white"/>
<path d="M21.1112 9.85598L18.8045 7.54923C18.7563 7.57384 18.6959 7.58503 18.6355 7.58503H17.5851C17.0414 7.58503 16.51 7.80206 16.1364 8.18912L13.1405 11.1839C12.8631 11.4613 12.4883 11.6067 12.1259 11.6067C11.7511 11.6067 11.3886 11.4613 11.1112 11.1839L8.10415 8.17682C7.7182 7.79087 7.18682 7.57272 6.65544 7.57272H5.36335C5.30294 7.57272 5.25484 7.56042 5.20673 7.53693L2.88768 9.85598C1.70411 11.0396 1.70411 12.9715 2.88768 14.1551L5.19443 16.4619C5.24253 16.4372 5.29064 16.4261 5.35105 16.4261H6.64314C7.18682 16.4261 7.7182 16.209 8.09184 15.822L11.0989 12.8149C11.6426 12.2712 12.5968 12.2712 13.1394 12.8149L16.1341 15.8097C16.5201 16.1956 17.0515 16.4138 17.5828 16.4138H18.6333C18.6937 16.4138 18.7418 16.4261 18.8022 16.4496L21.109 14.1428C22.2948 12.9592 22.2948 11.0396 21.1112 9.85598Z" fill="white"/>
</svg>
