<svg width="24" height="25" viewBox="0 0 24 25" fill="none" xmlns="http://www.w3.org/2000/svg">
<path d="M13.5 10H11.25C10.5596 10 10 10.5596 10 11.25C10 11.9404 10.5596 12.5 11.25 12.5H12.75C13.4404 12.5 14 13.0596 14 13.75C14 14.4404 13.4404 15 12.75 15H10.5M12 9V9.5M12 15.5V16M20 12.5C20 16.9183 16.4183 20.5 12 20.5C7.58172 20.5 4 16.9183 4 12.5C4 8.08172 7.58172 4.5 12 4.5M18 4.5V8.5M19.9142 7.58579L18.3536 9.14645C18.1583 9.34171 17.8417 9.34171 17.6464 9.14645L16.0858 7.58579" stroke="white" stroke-width="1.5" stroke-linecap="round" stroke-linejoin="round"/>
</svg>
