<svg width="24" height="24" viewBox="0 0 24 24" fill="none" xmlns="http://www.w3.org/2000/svg">
<path d="M16.5 14C16.5 14.2761 16.2761 14.5 16 14.5C15.7239 14.5 15.5 14.2761 15.5 14C15.5 13.7238 15.7239 13.5 16 13.5C16.2761 13.5 16.5 13.7238 16.5 14Z" fill="#131214"/>
<path d="M17 7.99999H7C5.34315 7.99999 4 9.34313 4 11M17 7.99999C18.6569 7.99999 20 9.34313 20 11V17C20 18.6568 18.6569 20 17 20H7C5.34315 20 4 18.6568 4 17V11M17 7.99999V6.91451C17 4.94044 15.1263 3.50445 13.2201 4.01766L8.34527 5.33011C5.78157 6.02033 4 8.345 4 11M16.5 14C16.5 14.2761 16.2761 14.5 16 14.5C15.7239 14.5 15.5 14.2761 15.5 14C15.5 13.7238 15.7239 13.5 16 13.5C16.2761 13.5 16.5 13.7238 16.5 14Z" stroke="white" stroke-width="1.5" stroke-linejoin="round"/>
</svg>
