<svg width="16" height="16" viewBox="0 0 16 16" fill="none" xmlns="http://www.w3.org/2000/svg">
<path d="M14 8V4.66667H3.33333C2.97971 4.66667 2.64057 4.52619 2.39052 4.27614C2.14048 4.02609 2 3.68696 2 3.33333C2 2.97971 2.14048 2.64057 2.39052 2.39052C2.64057 2.14048 2.97971 2 3.33333 2H12.6667V4.66667" stroke="white" stroke-linecap="round" stroke-linejoin="round"/>
<path d="M2 3.33334V12.6667C2 13.0203 2.14048 13.3594 2.39052 13.6095C2.64057 13.8595 2.97971 14 3.33333 14H14V10.6667" stroke="white" stroke-linecap="round" stroke-linejoin="round"/>
<path d="M12.0052 8C11.6516 8 11.3124 8.14048 11.0624 8.39052C10.8124 8.64057 10.6719 8.97971 10.6719 9.33333C10.6719 9.68696 10.8124 10.0261 11.0624 10.2761C11.3124 10.5262 11.6516 10.6667 12.0052 10.6667H14.6719V8H12.0052Z" stroke="white" stroke-linecap="round" stroke-linejoin="round"/>
</svg>
